<?xml version="1.0" standalone="no"?>
<!DOCTYPE svg PUBLIC "-//W3C//DTD SVG 20010904//EN"
 "http://www.w3.org/TR/2001/REC-SVG-20010904/DTD/svg10.dtd">
<svg version="1.0" xmlns="http://www.w3.org/2000/svg"
 width="1092.000000pt" height="651.000000pt" viewBox="0 0 1092.000000 651.000000"
 preserveAspectRatio="xMidYMid meet">

<g transform="translate(0.000000,651.000000) scale(0.100000,-0.100000)"
fill="#000000" stroke="none">
<path d="M0 3255 l0 -3255 5460 0 5460 0 0 3255 0 3255 -5460 0 -5460 0 0
-3255z m4645 1207 c-58 -56 -74 -78 -70 -93 5 -14 2 -19 -13 -19 -28 0 -34 25
-17 67 8 19 15 37 15 38 0 2 -14 -10 -31 -27 l-31 -31 -25 25 c-24 25 -24 26
-8 51 17 27 51 27 40 -1 -5 -12 -3 -13 10 -2 9 7 14 18 12 24 -3 6 21 37 51
68 l56 58 44 -43 43 -42 -76 -73z m1909 33 c-3 -6 3 -18 12 -26 16 -12 17 -12
11 4 -10 25 25 22 42 -4 11 -19 10 -25 -12 -47 l-26 -25 -30 32 c-35 38 -37
37 -16 -12 17 -42 11 -67 -17 -67 -10 0 -17 4 -13 10 8 14 -5 60 -18 60 -6 0
-37 26 -69 57 l-58 57 42 43 42 43 57 -56 c32 -31 55 -62 53 -69z m-1819 15
c4 -6 11 -8 16 -4 13 8 41 -15 33 -28 -3 -5 0 -16 7 -24 13 -16 0 -39 -24 -39
-7 0 -11 -8 -9 -16 4 -26 -23 -42 -38 -24 -7 8 -17 15 -23 15 -5 0 -2 -9 7
-19 21 -23 12 -44 -15 -36 -15 5 -19 1 -19 -19 0 -14 -2 -26 -4 -26 -2 0 -11
-3 -20 -6 -12 -5 -16 0 -16 16 0 22 -1 22 -19 6 -17 -15 -19 -15 -32 0 -11 13
-11 17 4 25 12 7 15 18 10 40 -5 25 -3 28 12 22 14 -5 17 -3 13 9 -10 26 13
40 34 21 19 -17 26 -5 7 14 -14 14 -3 33 17 33 8 0 19 11 24 25 10 26 24 32
35 15z m1647 -15 c6 -14 17 -25 24 -25 19 0 28 -20 15 -33 -19 -19 -12 -31 7
-14 21 19 44 5 34 -21 -4 -12 -1 -14 13 -9 15 6 17 3 12 -22 -5 -22 -2 -33 10
-40 15 -8 15 -12 4 -25 -13 -15 -15 -15 -32 0 -18 16 -19 16 -19 -4 0 -24 -1
-25 -24 -16 -10 4 -16 18 -16 36 0 26 -2 29 -15 18 -26 -22 -43 4 -20 30 10
11 13 20 8 20 -6 0 -16 -7 -23 -15 -15 -18 -42 -2 -38 24 2 8 -2 16 -9 16 -7
0 -17 5 -24 12 -10 10 -9 16 1 28 7 8 10 18 7 21 -9 9 21 36 32 29 5 -3 12 -1
16 5 11 17 25 11 37 -15z m-1457 -165 l69 -70 -28 -29 c-23 -24 -27 -33 -17
-44 14 -18 -8 -40 -31 -32 -10 4 -24 -8 -42 -35 -23 -34 -29 -39 -46 -30 -12
6 -17 16 -13 26 3 10 -8 30 -33 55 -38 39 -73 56 -40 20 16 -17 16 -19 0 -25
-29 -11 -56 23 -49 60 3 19 1 35 -5 39 -8 5 -7 11 1 21 9 11 15 12 26 2 11 -9
18 -8 30 5 13 12 14 19 5 30 -15 17 7 41 30 32 8 -3 25 6 38 20 13 14 26 25
30 25 3 0 37 -31 75 -70z m1335 45 c13 -14 30 -23 38 -20 21 8 45 -15 32 -30
-6 -8 -5 -18 4 -30 11 -16 17 -17 29 -7 11 10 17 9 28 -5 11 -13 11 -17 1 -21
-8 -2 -11 -14 -7 -36 7 -37 -20 -71 -49 -60 -16 6 -16 8 0 25 9 11 13 19 7 19
-18 0 -85 -81 -79 -95 3 -8 -3 -19 -14 -25 -17 -9 -23 -4 -46 30 -18 27 -32
39 -42 35 -23 -8 -45 14 -31 32 10 11 6 20 -17 44 l-28 29 69 70 c38 39 72 70
75 70 4 0 17 -11 30 -25z m-1920 -85 c23 -23 15 -50 -20 -73 -35 -21 -21 -25
20 -5 22 11 48 17 59 13 17 -5 19 -10 10 -32 -12 -32 -2 -44 17 -19 11 16 16
17 29 6 14 -12 14 -15 -1 -31 -16 -18 -16 -19 4 -19 24 0 25 -1 16 -24 -3 -9
-17 -16 -31 -16 -19 0 -23 -4 -18 -19 8 -27 -13 -36 -36 -15 -10 9 -19 12 -19
7 0 -6 7 -16 15 -23 18 -15 2 -42 -21 -33 -8 3 -14 -1 -14 -9 0 -26 -20 -38
-44 -26 -11 6 -28 14 -36 19 -8 4 -14 13 -12 20 2 7 -3 16 -9 20 -16 9 5 39
27 39 8 0 14 6 14 14 0 21 20 30 33 17 17 -17 31 -13 17 4 -16 19 -5 49 15 41
9 -3 15 0 15 8 0 8 7 17 16 20 26 10 10 18 -20 10 -14 -3 -26 -11 -26 -17 0
-6 -26 -37 -57 -69 l-57 -58 -43 42 -43 42 56 57 c31 32 62 55 68 53 7 -3 21
4 31 16 19 21 8 29 -13 8 -9 -9 -12 -8 -12 6 0 18 26 45 43 46 4 0 16 -9 27
-20z m2451 10 c10 -6 19 -20 19 -32 0 -17 -2 -18 -15 -8 -8 7 -15 8 -15 2 0
-14 29 -36 37 -28 4 4 33 -19 65 -51 l58 -57 -42 -43 -42 -43 -58 57 c-32 32
-58 63 -58 69 0 7 -12 15 -26 18 -30 8 -46 0 -20 -10 9 -3 16 -13 16 -21 0 -8
5 -11 10 -8 6 4 18 1 26 -6 13 -10 12 -14 -2 -30 -18 -20 -6 -27 13 -8 13 13
33 4 33 -17 0 -8 6 -14 14 -14 7 0 19 -7 27 -16 10 -13 10 -17 -1 -24 -8 -5
-11 -12 -7 -16 10 -11 -13 -34 -33 -34 -10 0 -20 -6 -23 -12 -4 -10 -7 -10
-18 0 -8 7 -14 18 -14 25 0 7 -8 12 -17 12 -28 0 -41 20 -23 35 8 7 15 17 15
23 0 5 -9 2 -19 -7 -23 -21 -44 -12 -36 15 5 15 1 19 -19 19 -14 0 -26 2 -26
4 0 2 -3 11 -6 20 -5 12 0 16 16 16 22 0 22 1 6 19 -15 16 -15 19 -1 31 13 11
18 10 29 -6 19 -25 29 -13 17 19 -8 22 -7 27 9 32 10 3 35 -1 55 -10 47 -19
55 -19 27 1 -38 26 -45 51 -22 74 23 23 25 23 51 10z m-2286 -230 c3 -5 18 -7
33 -4 33 7 66 -23 56 -50 -6 -16 -8 -16 -25 0 -11 9 -19 13 -19 8 0 -14 90
-87 97 -80 7 7 33 -13 33 -25 0 -4 -17 -20 -37 -34 -25 -17 -38 -33 -38 -48 0
-17 -5 -21 -24 -19 -16 1 -35 -8 -53 -25 l-29 -27 -71 72 -72 72 33 34 c21 22
29 36 21 41 -8 5 -8 10 1 21 9 11 15 12 26 2 20 -16 52 15 35 35 -9 10 -9 16
0 25 15 15 25 15 33 2z m2103 -2 c9 -9 9 -15 0 -25 -17 -20 15 -51 35 -35 11
10 17 9 26 -2 9 -11 9 -16 1 -21 -8 -5 0 -19 21 -41 l33 -34 -72 -72 -71 -72
-29 27 c-18 17 -37 26 -53 25 -19 -2 -24 2 -24 19 0 15 -13 31 -37 48 -21 14
-38 30 -38 34 0 12 26 32 33 25 7 -7 97 66 97 80 0 5 -8 1 -19 -8 -17 -16 -19
-16 -25 0 -10 27 23 57 56 50 15 -3 30 -1 33 4 8 13 18 13 33 -2z m-2078
-1423 c16 -17 33 -24 49 -23 21 2 26 -1 26 -19 0 -15 13 -32 38 -49 40 -27 44
-45 11 -54 -25 -6 -104 -70 -104 -83 0 -6 8 -2 19 7 17 16 19 16 25 0 10 -26
-23 -57 -55 -50 -14 3 -31 0 -37 -6 -17 -17 -46 10 -30 29 17 20 -15 52 -35
35 -11 -10 -17 -9 -26 2 -9 11 -9 16 -1 21 8 5 0 19 -21 41 l-33 34 69 70 c38
39 72 70 75 70 4 0 17 -11 30 -25z m2125 -45 l69 -70 -33 -34 c-21 -22 -29
-36 -21 -41 8 -5 8 -10 -1 -21 -9 -11 -15 -12 -26 -2 -20 17 -52 -15 -35 -35
16 -19 -13 -46 -30 -29 -6 6 -23 9 -37 6 -32 -7 -65 24 -55 50 6 16 8 16 25 0
11 -9 19 -13 19 -7 0 15 -72 75 -99 83 -38 10 -36 26 6 54 25 17 38 34 38 49
0 18 5 21 26 19 16 -1 33 6 49 23 13 14 26 25 30 25 3 0 37 -31 75 -70z
m-2310 -148 c5 -12 15 -20 22 -18 20 8 35 -20 18 -34 -8 -7 -15 -17 -15 -23 0
-5 9 -2 19 7 23 21 44 12 36 -15 -5 -15 -1 -19 19 -19 14 0 26 -2 26 -4 0 -2
3 -11 6 -20 5 -12 0 -16 -16 -16 -22 0 -22 -1 -7 -18 13 -14 14 -21 5 -30 -9
-9 -16 -8 -30 5 -23 21 -31 13 -19 -20 14 -37 -17 -45 -71 -18 l-41 20 32 -33
c27 -28 31 -37 22 -54 -6 -11 -17 -22 -26 -26 -21 -8 -55 15 -55 36 0 21 10
23 30 6 8 -7 6 -3 -5 10 -10 12 -24 21 -31 18 -6 -2 -37 21 -68 53 l-56 57 43
42 43 42 57 -58 c31 -32 57 -63 57 -69 0 -6 10 -13 22 -16 24 -7 41 3 21 10
-7 3 -13 11 -13 19 0 8 -6 11 -15 8 -20 -8 -31 22 -15 41 14 17 0 21 -17 4
-13 -13 -33 -4 -33 17 0 8 -6 14 -14 14 -7 0 -19 7 -27 16 -10 13 -10 17 1 24
8 5 11 12 7 16 -11 11 23 43 39 37 8 -3 14 0 14 7 0 18 24 6 35 -18z m2425 19
c0 -5 14 -11 31 -15 24 -4 30 -10 25 -23 -4 -9 -1 -20 6 -24 15 -9 -7 -39 -28
-39 -8 0 -14 -6 -14 -14 0 -21 -20 -30 -33 -17 -17 17 -31 13 -17 -4 16 -19 5
-49 -15 -41 -9 3 -15 0 -15 -8 0 -8 -6 -16 -12 -19 -21 -7 -4 -17 20 -10 12 3
22 10 22 16 0 6 26 37 57 69 l57 58 43 -42 43 -42 -56 -57 c-31 -32 -62 -55
-69 -53 -6 3 -18 -2 -25 -11 -11 -13 -10 -14 4 -9 24 9 21 -28 -4 -44 -16 -10
-24 -10 -40 0 -32 20 -32 38 0 70 17 16 30 31 30 33 0 1 -18 -6 -40 -17 -22
-11 -48 -17 -59 -13 -17 5 -19 10 -10 32 12 32 2 44 -17 19 -11 -16 -16 -17
-29 -6 -14 12 -14 15 1 31 16 18 16 19 -4 19 -24 0 -25 1 -16 24 3 9 17 16 31
16 19 0 23 4 18 19 -8 27 13 36 36 15 10 -9 19 -12 19 -7 0 6 -7 16 -15 23
-18 15 -5 35 23 35 9 0 17 5 17 10 1 24 35 50 35 26z m-1894 -151 c19 -29 32
-39 44 -35 9 3 23 -1 30 -10 8 -10 9 -15 1 -15 -19 0 -12 -23 16 -52 l27 -29
-72 -71 -71 -72 -30 28 c-16 15 -34 25 -41 21 -6 -4 -17 -1 -26 5 -11 10 -12
16 -2 27 17 20 -15 52 -35 35 -11 -10 -17 -9 -28 5 -11 13 -11 17 -1 21 8 2
11 14 7 36 -7 37 20 71 49 60 16 -6 16 -8 0 -25 -9 -11 -13 -19 -7 -19 17 0
83 78 83 98 0 20 8 32 22 32 4 0 20 -18 34 -40z m1383 27 c6 -8 8 -17 5 -20
-9 -8 64 -97 78 -97 6 0 3 8 -6 19 -16 17 -16 19 0 25 29 11 56 -23 49 -60 -4
-22 -1 -34 7 -36 10 -4 10 -8 -1 -21 -11 -14 -17 -15 -28 -5 -20 17 -52 -15
-35 -35 10 -11 9 -17 -2 -27 -9 -6 -20 -9 -26 -5 -7 4 -25 -6 -41 -21 l-30
-28 -71 72 -72 71 27 29 c28 29 35 52 16 52 -8 0 -7 5 1 15 7 9 21 13 30 10
12 -4 25 6 44 35 28 43 37 47 55 27z m-1605 -193 c9 -3 16 -17 16 -31 0 -19 4
-23 19 -18 27 8 36 -13 15 -36 -9 -10 -12 -19 -7 -19 6 0 16 7 23 15 15 18 42
2 38 -24 -2 -8 2 -16 9 -16 7 0 17 -5 24 -12 10 -10 9 -16 -2 -29 -8 -9 -13
-19 -11 -21 6 -8 -17 -37 -24 -31 -4 5 -13 3 -20 -3 -16 -13 -34 -4 -34 17 0
8 -11 19 -25 24 -26 10 -32 24 -15 35 6 3 10 11 10 17 0 7 -5 7 -14 -1 -18
-15 -46 -4 -39 17 5 12 2 14 -12 9 -15 -6 -17 -3 -12 22 4 19 1 33 -9 41 -11
10 -12 16 -3 27 10 11 15 11 30 -3 18 -16 19 -16 19 4 0 24 1 25 24 16z m1796
-16 c0 -20 1 -20 19 -4 17 15 19 15 32 0 11 -13 11 -17 -4 -25 -12 -7 -15 -18
-10 -40 5 -25 3 -28 -12 -22 -14 5 -17 3 -13 -9 10 -26 -13 -40 -34 -21 -19
17 -26 5 -7 -14 14 -14 3 -33 -17 -33 -8 0 -19 -11 -24 -25 -10 -25 -30 -35
-30 -14 0 6 -7 8 -16 5 -19 -7 -48 19 -38 35 3 6 0 15 -7 20 -11 7 -11 11 -1
21 7 7 18 13 25 13 7 0 12 8 12 17 0 28 20 41 35 23 7 -8 17 -15 23 -15 5 0 2
9 -7 19 -21 23 -12 44 15 36 15 -5 19 -1 19 18 0 23 10 34 33 36 4 1 7 -9 7
-21z m-1875 -67 c-5 -15 12 -36 70 -92 l76 -73 -43 -43 -42 -43 -57 56 c-32
31 -55 62 -53 69 3 6 -2 18 -11 25 -13 11 -14 10 -9 -4 9 -25 -28 -20 -45 5
-11 19 -10 25 13 47 l26 26 29 -28 29 -28 -13 38 c-15 45 -10 64 17 64 15 0
18 -5 13 -19z m1969 3 c3 -8 -1 -31 -9 -50 l-15 -35 30 25 c33 27 49 26 68 -4
10 -16 10 -24 0 -40 -16 -25 -53 -28 -44 -4 5 14 4 15 -9 4 -9 -7 -14 -19 -11
-25 2 -7 -21 -38 -53 -69 l-57 -56 -42 43 -43 43 76 73 c58 56 75 77 70 92 -5
14 -2 19 13 19 11 0 23 -7 26 -16z"/>
<path d="M4640 4545 c7 -9 15 -13 17 -11 7 7 -7 26 -19 26 -6 0 -6 -6 2 -15z"/>
<path d="M4600 4533 c0 -13 29 -38 35 -31 3 3 -4 13 -15 23 -11 10 -20 13 -20
8z"/>
<path d="M4570 4506 c0 -2 8 -10 18 -17 15 -13 16 -12 3 4 -13 16 -21 21 -21
13z"/>
<path d="M6430 4555 c-7 -9 -11 -18 -8 -20 3 -3 11 1 18 10 7 9 11 18 8 20 -3
3 -11 -1 -18 -10z"/>
<path d="M6455 4520 c-10 -11 -13 -20 -8 -20 13 0 38 29 31 35 -3 3 -13 -4
-23 -15z"/>
<path d="M6490 4495 c-11 -13 -10 -14 4 -9 9 3 16 10 16 15 0 13 -6 11 -20 -6z"/>
<path d="M4715 4450 c-3 -5 1 -10 10 -10 9 0 13 5 10 10 -3 6 -8 10 -10 10 -2
0 -7 -4 -10 -10z"/>
<path d="M6346 4451 c-4 -5 -2 -12 3 -15 5 -4 12 -2 15 3 4 5 2 12 -3 15 -5 4
-12 2 -15 -3z"/>
<path d="M4835 4330 c-15 -16 -16 -23 -6 -33 8 -8 14 -9 19 -1 4 6 12 13 19
15 9 3 8 8 -1 21 -12 17 -14 17 -31 -2z"/>
<path d="M4773 4260 c-15 -22 -5 -31 25 -23 25 6 27 14 10 31 -16 16 -21 15
-35 -8z"/>
<path d="M4893 4272 c-27 -4 -28 -8 -7 -29 14 -14 17 -14 32 1 19 19 7 34 -25
28z"/>
<path d="M4850 4212 c0 -6 -10 -12 -21 -14 -21 -3 -21 -3 -2 -21 19 -16 21
-16 37 1 15 17 15 20 1 32 -9 8 -15 8 -15 2z"/>
<path d="M6212 4330 c-10 -16 -10 -20 2 -20 8 0 16 -6 19 -12 4 -10 7 -10 18
0 11 10 10 16 -7 32 -19 20 -19 20 -32 0z"/>
<path d="M6154 4268 c-4 -6 1 -17 9 -26 13 -13 19 -13 31 -2 9 7 16 16 16 20
0 12 -50 19 -56 8z"/>
<path d="M6272 4268 c-17 -17 -15 -25 10 -31 30 -8 40 1 25 23 -14 23 -19 24
-35 8z"/>
<path d="M6212 4208 c-10 -12 -8 -18 6 -32 18 -15 20 -15 37 4 18 19 17 20 -3
20 -11 0 -22 5 -24 11 -2 7 -8 6 -16 -3z"/>
<path d="M4260 4182 c0 -12 19 -26 26 -19 2 2 -2 10 -11 17 -9 8 -15 8 -15 2z"/>
<path d="M4230 4152 c0 -5 7 -15 15 -22 8 -7 15 -8 15 -2 0 5 -7 15 -15 22 -8
7 -15 8 -15 2z"/>
<path d="M4200 4122 c0 -12 19 -26 26 -19 2 2 -2 10 -11 17 -9 8 -15 8 -15 2z"/>
<path d="M4305 4041 c-6 -11 9 -23 19 -14 9 9 7 23 -3 23 -6 0 -12 -4 -16 -9z"/>
<path d="M6800 4175 c-7 -8 -8 -15 -2 -15 5 0 15 7 22 15 7 8 8 15 2 15 -5 0
-15 -7 -22 -15z"/>
<path d="M6830 4145 c-20 -24 -6 -28 15 -5 10 11 13 20 8 20 -6 0 -16 -7 -23
-15z"/>
<path d="M6860 4115 c-8 -9 -8 -15 -2 -15 12 0 26 19 19 26 -2 2 -10 -2 -17
-11z"/>
<path d="M6752 4041 c4 -13 18 -16 19 -4 0 4 -5 9 -11 12 -7 2 -11 -2 -8 -8z"/>
<path d="M4496 3984 c-16 -11 -17 -16 -6 -29 16 -19 30 -19 30 -1 0 8 5 16 11
18 8 3 7 7 -2 15 -11 9 -19 8 -33 -3z"/>
<path d="M4560 3932 c0 -11 -6 -22 -12 -25 -9 -3 -7 -7 5 -12 12 -5 24 -2 33
7 13 13 12 17 -6 33 -19 18 -20 18 -20 -3z"/>
<path d="M4430 3924 c-11 -12 -10 -18 3 -32 16 -15 17 -15 17 0 0 9 5 18 12
20 12 4 3 28 -11 28 -5 0 -14 -7 -21 -16z"/>
<path d="M4488 3865 c-6 -32 9 -43 30 -22 13 13 13 19 2 31 -18 22 -27 20 -32
-9z"/>
<path d="M6550 3985 c-9 -10 -9 -15 -1 -15 6 0 11 -7 11 -15 0 -8 4 -15 9 -15
10 0 36 29 30 33 -2 1 -11 8 -20 15 -13 10 -19 9 -29 -3z"/>
<path d="M6497 3933 c-15 -18 -16 -22 -2 -33 8 -7 23 -9 32 -6 11 5 14 10 6
14 -6 4 -12 15 -14 26 -4 17 -5 17 -22 -1z"/>
<path d="M6614 3928 c-4 -6 -2 -14 4 -16 7 -2 12 -11 12 -20 0 -15 1 -15 17 0
13 14 14 20 3 32 -15 19 -26 20 -36 4z"/>
<path d="M6560 3874 c-11 -12 -11 -18 2 -31 21 -21 36 -10 30 22 -5 29 -14 31
-32 9z"/>
<path d="M4488 2605 c-7 -8 3 -55 12 -55 4 0 13 7 20 15 10 12 10 18 0 30 -13
16 -23 19 -32 10z"/>
<path d="M4430 2546 c-11 -15 -11 -19 3 -34 14 -13 19 -14 29 -4 9 9 10 15 2
20 -6 4 -13 13 -15 21 -4 10 -8 10 -19 -3z"/>
<path d="M4550 2545 c-8 -9 -8 -15 -2 -15 6 0 12 -10 14 -21 3 -21 3 -21 21
-2 16 19 16 21 -1 37 -17 15 -20 15 -32 1z"/>
<path d="M4490 2485 c-11 -13 -10 -18 6 -29 14 -11 22 -12 33 -3 9 8 10 12 2
15 -6 2 -11 10 -11 18 0 18 -14 18 -30 -1z"/>
<path d="M6560 2595 c-11 -13 -11 -19 3 -32 19 -19 24 -17 29 16 4 29 -14 38
-32 16z"/>
<path d="M6496 2542 c-15 -18 -15 -20 4 -37 19 -18 20 -17 20 3 0 11 5 22 11
24 7 2 6 8 -3 16 -12 10 -18 8 -32 -6z"/>
<path d="M6630 2548 c0 -9 -6 -18 -12 -21 -10 -4 -10 -7 0 -18 10 -11 15 -10
29 4 16 16 16 18 0 34 -15 16 -17 16 -17 1z"/>
<path d="M6560 2486 c0 -8 -5 -16 -11 -18 -8 -3 -7 -7 2 -15 11 -9 19 -8 33 3
16 11 17 16 6 29 -16 19 -30 19 -30 1z"/>
<path d="M4306 2412 c-3 -6 -1 -14 5 -17 15 -10 25 3 12 16 -7 7 -13 7 -17 1z"/>
<path d="M4205 2329 c-11 -17 1 -21 15 -4 8 9 8 15 2 15 -6 0 -14 -5 -17 -11z"/>
<path d="M4240 2305 c-7 -9 -11 -18 -8 -20 3 -3 11 1 18 10 7 9 11 18 8 20 -3
3 -11 -1 -18 -10z"/>
<path d="M4265 2269 c-11 -17 1 -21 15 -4 8 9 8 15 2 15 -6 0 -14 -5 -17 -11z"/>
<path d="M6755 2409 c-10 -15 3 -25 16 -12 7 7 7 13 1 17 -6 3 -14 1 -17 -5z"/>
<path d="M6860 2325 c7 -9 15 -13 17 -11 7 7 -7 26 -19 26 -6 0 -6 -6 2 -15z"/>
<path d="M6820 2312 c0 -5 7 -15 15 -22 8 -7 15 -8 15 -2 0 5 -7 15 -15 22 -8
7 -15 8 -15 2z"/>
<path d="M6800 2265 c7 -9 15 -13 17 -11 7 7 -7 26 -19 26 -6 0 -6 -6 2 -15z"/>
<path d="M4825 2260 c-18 -19 -17 -20 3 -20 11 0 22 -5 24 -11 2 -7 8 -6 16 3
10 12 8 18 -6 32 -18 15 -20 15 -37 -4z"/>
<path d="M4773 2209 c-9 -11 -8 -19 3 -33 11 -16 16 -17 29 -6 19 16 19 30 1
30 -8 0 -16 5 -18 11 -3 8 -7 7 -15 -2z"/>
<path d="M4882 2198 c-18 -18 -15 -25 13 -30 30 -6 42 7 25 27 -15 18 -22 19
-38 3z"/>
<path d="M4824 2139 c-3 -6 1 -18 10 -27 15 -15 17 -15 33 1 16 16 16 17 0 17
-9 0 -17 5 -17 10 0 13 -17 13 -26 -1z"/>
<path d="M6216 2262 c-15 -17 -15 -20 -1 -32 9 -8 15 -8 15 -2 0 6 10 12 21
14 21 3 21 3 2 21 -19 16 -21 16 -37 -1z"/>
<path d="M6160 2195 c-17 -20 -5 -33 25 -27 28 5 31 12 13 30 -16 16 -23 15
-38 -3z"/>
<path d="M6278 2203 c-22 -6 -23 -17 -3 -33 13 -11 18 -10 29 6 8 10 12 22 10
26 -5 8 -8 8 -36 1z"/>
<path d="M6230 2140 c0 -5 -8 -10 -17 -10 -16 0 -16 -1 0 -17 16 -16 18 -16
33 -1 9 9 13 21 10 27 -9 14 -26 14 -26 1z"/>
<path d="M4712 2001 c4 -13 18 -16 19 -4 0 4 -5 9 -11 12 -7 2 -11 -2 -8 -8z"/>
<path d="M6345 2001 c-6 -11 9 -23 19 -14 9 9 7 23 -3 23 -6 0 -12 -4 -16 -9z"/>
<path d="M4580 1955 c-7 -9 -11 -18 -8 -20 3 -3 11 1 18 10 7 9 11 18 8 20 -3
3 -11 -1 -18 -10z"/>
<path d="M4610 1925 c-20 -24 -6 -28 15 -5 10 11 13 20 8 20 -6 0 -16 -7 -23
-15z"/>
<path d="M4640 1895 c-8 -9 -8 -15 -2 -15 12 0 26 19 19 26 -2 2 -10 -2 -17
-11z"/>
<path d="M6480 1962 c0 -12 19 -26 26 -19 2 2 -2 10 -11 17 -9 8 -15 8 -15 2z"/>
<path d="M6455 1920 c10 -11 20 -18 23 -15 7 6 -18 35 -31 35 -5 0 -2 -9 8
-20z"/>
<path d="M6420 1902 c0 -12 19 -26 26 -19 2 2 -2 10 -11 17 -9 8 -15 8 -15 2z"/>
</g>
</svg>
