<?xml version="1.0" standalone="no"?>
<!DOCTYPE svg PUBLIC "-//W3C//DTD SVG 20010904//EN"
 "http://www.w3.org/TR/2001/REC-SVG-20010904/DTD/svg10.dtd">
<svg version="1.0" xmlns="http://www.w3.org/2000/svg"
 width="1472.000000pt" height="704.000000pt" viewBox="0 0 1472.000000 704.000000"
 preserveAspectRatio="xMidYMid meet">

<g transform="translate(0.000000,704.000000) scale(0.100000,-0.100000)"
fill="#000000" stroke="none">
<path d="M8205 4425 c-50 -106 -51 -108 -30 -125 19 -16 10 -30 -15 -23 -16 4
-24 -3 -40 -38 -11 -24 -20 -50 -20 -56 0 -10 42 -13 172 -12 168 0 173 -1
190 -23 l18 -23 0 28 0 27 -85 0 c-47 0 -85 2 -85 4 0 3 9 20 19 38 11 18 38
78 61 133 23 55 46 104 51 110 14 15 10 42 -7 49 -9 3 -54 6 -100 6 l-84 0
-45 -95z m184 79 c25 -5 30 -10 25 -23 -4 -9 -12 -32 -19 -51 -10 -26 -20 -36
-39 -38 -23 -3 -26 0 -26 28 0 27 -3 31 -22 28 -14 -2 -29 -16 -40 -38 -26
-53 -23 -60 22 -60 26 0 43 -5 46 -14 3 -8 -10 -45 -28 -83 l-33 -68 -68 -3
c-95 -5 -101 -1 -80 43 18 38 46 46 84 23 17 -11 22 -10 35 7 20 27 13 39 -27
45 -21 3 -35 11 -37 22 -5 24 68 176 87 181 26 7 86 8 120 1z m-79 -99 c0 -21
5 -25 29 -25 35 0 42 -8 34 -38 -7 -27 -19 -28 -26 -2 -4 15 -14 20 -36 20
-36 0 -48 19 -31 49 15 29 30 26 30 -4z m-70 -141 c0 -8 -7 -14 -15 -14 -15 0
-21 21 -9 33 10 9 24 -2 24 -19z"/>
<path d="M8463 4514 c3 -4 42 -6 87 -5 65 1 80 -1 80 -13 0 -21 -17 -30 -84
-41 -58 -10 -60 -11 -75 -53 -13 -35 -13 -44 -2 -51 21 -13 9 -46 -19 -50 -27
-3 -40 -17 -40 -43 0 -13 10 -18 43 -20 41 -3 42 -4 40 -36 l-1 -33 101 3 101
3 8 45 c5 25 7 54 6 64 -3 17 -6 17 -36 -9 -18 -15 -36 -25 -39 -21 -3 3 3 27
13 53 28 71 28 69 16 58 -6 -5 -20 -34 -31 -63 -18 -46 -19 -53 -5 -59 8 -3
25 4 38 16 29 27 34 21 27 -31 l-6 -43 -69 -3 c-38 -2 -75 -1 -82 2 -9 4 8 50
62 163 59 126 78 157 92 155 10 -1 29 1 43 6 16 7 -24 10 -125 11 -82 0 -146
-2 -143 -5z m157 -79 c0 -3 -23 -54 -51 -113 -41 -88 -52 -104 -60 -89 -6 11
-22 17 -44 17 -19 0 -36 4 -39 9 -7 11 13 28 39 33 11 2 24 16 29 31 8 22 6
30 -8 40 -17 13 -17 15 -2 45 16 31 19 32 76 32 33 0 60 -2 60 -5z"/>
<path d="M8864 4505 c-5 -11 -10 -13 -19 -5 -10 8 -14 4 -17 -17 -3 -16 -7
-35 -10 -43 -3 -8 -3 -12 -1 -7 6 10 63 9 63 -2 0 -4 -25 -61 -55 -125 -30
-64 -55 -121 -55 -126 0 -6 16 -10 36 -10 l35 0 65 135 c57 121 66 135 89 135
15 0 25 -6 25 -14 0 -8 -22 -64 -50 -125 -27 -61 -50 -115 -50 -121 0 -5 77
-9 198 -9 227 0 212 -6 265 104 23 47 107 236 107 239 0 1 -23 1 -52 1 l-52 0
-55 -122 c-54 -118 -75 -152 -86 -141 -3 2 19 61 49 129 30 68 52 127 50 131
-3 5 -28 8 -57 8 -38 0 -48 -3 -40 -11 12 -12 -2 -59 -18 -59 -5 0 -6 -6 -3
-14 3 -8 -22 -67 -55 -132 -36 -71 -58 -106 -54 -86 5 31 5 32 -31 32 -30 0
-37 3 -34 18 2 9 14 18 26 20 14 2 27 14 33 28 13 35 11 47 -6 41 -23 -10 -27
9 -9 47 13 27 24 36 48 39 31 4 31 4 -4 5 -32 2 -36 -1 -52 -41 -22 -52 -22
-67 -3 -67 8 0 15 -7 15 -15 0 -8 -9 -15 -19 -15 -25 0 -51 -26 -51 -51 0 -15
7 -19 35 -19 36 0 42 -10 29 -44 -5 -13 -22 -16 -84 -16 l-78 0 33 78 c18 43
42 98 54 122 30 62 28 70 -17 70 l-39 0 -64 -132 c-51 -106 -69 -134 -86 -136
-13 -2 -23 1 -23 7 0 6 23 61 50 122 28 61 50 117 50 124 0 7 -9 15 -21 18
-20 5 -20 7 -4 31 17 25 20 26 148 29 l132 3 -138 2 c-115 2 -139 0 -143 -13z
m586 -12 c0 -2 -32 -74 -72 -159 l-72 -154 -81 0 c-45 0 -84 2 -87 6 -3 3 3
22 13 42 11 20 44 90 74 155 48 105 56 117 79 117 14 0 26 -2 26 -4 0 -6 -30
-77 -62 -146 -52 -112 -52 -110 -19 -110 23 0 31 6 41 33 18 45 100 209 111
223 9 11 49 8 49 -3z"/>
<path d="M9775 4510 c-8 -13 5 -13 25 0 13 8 13 10 -2 10 -9 0 -20 -4 -23 -10z"/>
<path d="M9821 4516 c2 -3 31 -6 63 -8 32 -2 60 -6 62 -10 2 -3 -27 -75 -66
-159 -38 -85 -70 -155 -70 -156 0 -2 -38 -3 -85 -3 -89 0 -100 7 -72 43 8 11
30 17 72 19 54 3 60 5 63 26 4 23 -1 25 -55 22 -42 -2 -42 7 2 111 19 45 33
84 31 86 -7 7 -78 -152 -79 -177 -2 -23 2 -25 41 -28 28 -2 42 -8 42 -18 0
-10 -14 -14 -57 -14 -54 0 -59 -2 -75 -31 -10 -17 -18 -35 -18 -40 0 -5 44 -9
99 -9 l98 0 48 108 c26 59 60 134 75 167 16 32 26 63 24 67 -3 4 -37 8 -76 8
-39 0 -69 -2 -67 -4z"/>
<path d="M9518 4503 c6 -2 18 -2 25 0 6 3 1 5 -13 5 -14 0 -19 -2 -12 -5z"/>
<path d="M9636 4440 c-26 -63 -46 -92 -90 -128 -11 -9 -16 -29 -16 -67 0 -52
-1 -55 -25 -55 -24 0 -25 2 -25 68 0 75 3 82 42 99 16 7 34 27 43 49 19 47 20
44 -15 44 -20 0 -33 -6 -37 -17 -30 -88 -137 -283 -155 -283 -3 0 -9 10 -11
23 -2 12 -5 2 -6 -23 l-1 -45 25 30 c14 17 39 54 56 83 17 28 35 52 39 52 5 0
10 -21 12 -47 3 -48 3 -48 38 -48 l35 0 -3 62 c-4 59 -3 62 25 75 15 7 36 29
45 48 40 81 67 150 60 150 -4 0 -20 -31 -36 -70z m-76 -7 c0 -5 -9 -23 -21
-42 -27 -44 -49 -28 -25 18 15 27 46 44 46 24z"/>
<path d="M8686 4421 c-22 -42 -20 -52 4 -16 26 40 44 38 50 -5 4 -25 11 -36
25 -38 15 -2 17 -1 6 6 -8 6 -14 25 -15 44 -1 28 -5 33 -28 36 -21 3 -30 -3
-42 -27z"/>
<path d="M9799 4409 c-20 -41 -18 -59 6 -59 14 0 27 18 44 63 8 21 6 26 -10
30 -15 4 -24 -4 -40 -34z m41 8 c0 -19 -27 -53 -36 -45 -9 10 12 58 26 58 5 0
10 -6 10 -13z"/>
<path d="M7953 4343 c-7 -19 -71 -164 -245 -553 -56 -124 -127 -283 -159 -355
l-58 -130 167 -3 c91 -1 170 -6 174 -10 4 -4 -21 -75 -56 -157 -35 -83 -62
-153 -59 -157 2 -5 53 -8 113 -8 129 0 116 -11 183 155 25 61 85 202 134 315
115 262 145 339 139 349 -3 5 -54 8 -113 7 l-107 -1 -61 -140 -61 -140 -57 -3
c-31 -2 -57 1 -57 6 0 10 85 205 210 478 l28 61 -34 109 c-19 60 -39 128 -45
152 -12 44 -25 54 -36 25z m61 -154 l39 -132 -31 -66 c-148 -325 -212 -472
-212 -485 0 -14 11 -16 72 -14 l73 3 59 143 59 142 98 0 c55 0 99 -1 99 -2 0
-11 -63 -163 -187 -450 l-146 -338 -103 0 -103 0 35 83 c42 97 94 226 94 232
0 3 -76 5 -170 5 -129 0 -170 3 -170 13 0 6 21 57 46 112 25 55 88 197 140
315 53 118 127 284 166 369 38 85 74 165 79 177 4 13 12 24 16 24 5 0 26 -59
47 -131z"/>
<path d="M5372 4329 c-6 -13 -61 -141 -124 -284 -281 -636 -458 -1042 -461
-1060 -1 -6 88 -11 249 -13 l251 -2 12 27 c49 107 71 177 59 185 -7 5 -62 8
-123 7 -90 -2 -110 0 -108 12 2 20 215 508 335 769 16 36 30 72 31 81 1 18
-91 279 -104 293 -5 5 -12 -1 -17 -15z m69 -154 l42 -121 -83 -184 c-127 -284
-300 -682 -300 -692 0 -4 57 -8 126 -8 105 0 125 -2 121 -14 -3 -8 -20 -49
-37 -90 l-32 -76 -234 0 c-129 0 -234 2 -234 5 0 11 105 258 230 540 181 410
305 694 324 739 10 24 20 36 26 30 5 -5 28 -63 51 -129z"/>
<path d="M4047 4063 c-31 -3 -47 -8 -45 -16 3 -7 47 -38 99 -69 52 -31 95 -63
97 -70 1 -7 -37 -105 -86 -218 -102 -235 -267 -610 -289 -656 -53 -115 -139
-330 -132 -332 9 -4 214 161 306 245 48 43 60 64 127 218 l74 170 67 3 c52 2
66 0 62 -10 -3 -7 -34 -80 -70 -163 -95 -220 -100 -195 41 -195 l120 0 36 88
c39 96 76 181 290 667 98 222 141 332 134 336 -12 8 -745 9 -831 2z m809 -37
c-3 -13 -49 -122 -102 -242 -53 -121 -152 -347 -220 -504 l-124 -285 -105 -3
-105 -3 9 23 c12 31 59 143 81 193 46 104 60 138 60 146 0 5 -35 9 -79 9 l-78
0 -83 -187 -82 -188 -85 -70 c-184 -151 -216 -176 -220 -172 -5 6 125 316 227
542 112 247 270 616 270 629 0 6 -43 36 -95 66 -52 30 -95 58 -95 63 0 4 187
7 416 7 l416 0 -6 -24z"/>
<path d="M4414 3858 c-26 -41 -131 -304 -125 -311 4 -4 41 -7 81 -5 l73 3 62
145 c33 80 64 153 68 163 6 15 -2 17 -73 17 -49 0 -82 -4 -86 -12z m134 -12
c4 -4 -48 -131 -93 -228 l-26 -58 -65 0 c-36 0 -63 3 -61 8 3 4 30 68 62 142
31 74 61 138 67 141 11 7 108 2 116 -5z"/>
<path d="M5029 4062 l-76 -3 -53 -122 c-29 -67 -75 -171 -103 -232 -126 -276
-307 -702 -307 -721 0 -11 24 -14 113 -14 l114 0 43 103 c41 97 181 415 351
800 44 98 79 180 79 182 0 6 -86 10 -161 7z m138 -24 c-3 -7 -67 -152 -142
-323 -76 -170 -177 -402 -226 -515 l-89 -205 -100 -3 c-70 -2 -100 1 -100 9 0
6 22 61 49 123 27 61 79 181 116 266 37 85 90 205 118 265 27 61 67 151 88
200 20 50 47 114 59 143 l23 52 104 0 c80 0 104 -3 100 -12z"/>
<path d="M6200 4064 c-8 -3 -37 -55 -64 -117 -28 -62 -88 -197 -134 -302 -47
-104 -111 -251 -142 -325 l-58 -135 -61 -3 c-36 -2 -61 1 -61 7 0 10 44 111
172 401 l60 134 -22 76 c-69 239 -80 266 -93 223 -3 -10 -60 -142 -127 -293
-67 -151 -137 -313 -157 -360 -19 -47 -44 -105 -55 -130 -38 -82 -108 -253
-108 -261 0 -5 135 -9 299 -9 l299 0 30 73 c17 39 72 164 123 277 90 201 187
423 276 628 24 57 41 107 38 110 -8 8 -193 13 -215 6z m200 -20 c0 -8 -71
-171 -266 -609 -95 -214 -177 -402 -183 -417 -10 -28 -11 -28 -108 -29 -54 0
-180 -3 -280 -5 -104 -2 -184 0 -187 5 -4 5 28 90 70 188 98 228 293 677 334
768 l32 70 12 -35 c7 -19 25 -85 41 -146 l29 -111 -21 -49 c-12 -27 -64 -148
-117 -268 -53 -120 -96 -223 -96 -228 0 -5 34 -8 76 -6 l77 3 54 125 c67 155
147 336 183 415 15 33 49 110 75 170 79 183 60 165 175 165 55 0 100 -3 100
-6z"/>
<path d="M6481 4053 c-5 -10 -20 -45 -34 -78 -14 -33 -43 -100 -65 -150 -52
-119 -319 -728 -343 -784 -32 -73 -33 -72 93 -69 l112 3 60 136 c34 75 76 173
94 218 19 45 37 79 42 76 4 -2 11 -89 14 -192 4 -104 9 -200 12 -216 l6 -27
226 2 226 3 73 160 c40 88 77 172 82 188 9 25 13 27 70 27 42 0 61 -4 61 -13
0 -6 -23 -63 -51 -126 l-51 -114 37 -126 c20 -69 40 -137 44 -150 12 -40 27
-35 48 16 12 26 68 156 126 288 57 132 150 346 205 475 55 129 121 282 146
340 25 58 46 110 46 117 0 10 -131 13 -635 13 -594 0 -635 -1 -644 -17z m1248
-2 c10 -7 -10 -62 -97 -262 -60 -140 -129 -299 -152 -354 -87 -204 -203 -472
-237 -545 l-35 -75 -13 40 c-40 120 -65 211 -65 230 0 12 20 68 44 123 58 133
61 143 45 153 -22 13 -125 11 -137 -3 -6 -7 -43 -87 -82 -178 -39 -91 -76
-171 -82 -177 -7 -9 -42 -13 -109 -13 -55 0 -99 2 -99 3 0 2 34 80 76 173 42
93 91 203 109 244 46 106 173 394 202 460 l25 54 -29 23 c-50 41 -41 54 -162
-230 -39 -92 -71 -171 -71 -176 0 -5 -37 -32 -82 -60 -46 -28 -94 -59 -106
-69 l-24 -18 11 -128 c6 -70 11 -161 11 -202 l0 -74 -94 0 -95 0 -5 53 c-3 28
-8 124 -12 212 -3 88 -7 164 -7 170 -1 5 48 47 110 92 l111 84 52 122 c28 67
54 128 57 135 4 9 -21 12 -106 12 -67 0 -111 -4 -111 -10 0 -5 9 -10 20 -10
11 0 20 -4 20 -10 0 -5 -43 -105 -96 -222 -53 -117 -137 -306 -187 -420 l-90
-208 -99 0 c-98 0 -99 0 -92 23 7 23 75 181 243 562 53 121 121 277 151 347
l55 127 240 3 c569 8 981 7 994 -1z m-645 -114 c17 -13 16 -18 -18 -100 -20
-48 -45 -106 -55 -130 -34 -74 -246 -549 -282 -631 l-34 -79 -7 39 c-9 48 -26
335 -21 349 2 6 48 39 103 75 55 35 100 68 100 72 0 4 29 74 64 155 126 290
116 275 150 250z m-324 -94 c0 -5 -21 -59 -47 -122 l-48 -113 -94 -69 c-52
-38 -96 -67 -98 -66 -2 2 30 80 71 173 40 93 76 177 79 187 5 14 18 17 72 17
36 0 65 -3 65 -7z"/>
<path d="M7236 3716 c-36 -85 -66 -157 -66 -161 0 -3 34 -5 76 -3 l76 3 64
148 c35 81 64 152 64 157 0 6 -33 10 -74 10 l-74 0 -66 -154z m192 125 c-1 -4
-30 -70 -62 -145 l-59 -136 -53 0 c-29 0 -55 4 -58 8 -3 5 23 70 56 145 l61
137 59 0 c33 0 58 -4 56 -9z"/>
<path d="M8478 4059 c-10 -5 -18 -15 -18 -21 0 -10 -53 -137 -158 -378 -197
-453 -290 -675 -286 -682 3 -4 137 -8 299 -8 224 0 296 3 302 13 10 16 175
396 272 627 148 351 183 439 177 449 -9 14 -565 14 -588 0z m567 -11 c3 -3 -3
-27 -13 -54 -69 -174 -187 -456 -229 -549 -28 -60 -83 -188 -123 -282 l-73
-173 -288 0 -289 0 9 23 c5 12 38 90 74 172 35 83 102 236 147 340 45 105 92
213 104 240 12 28 44 103 71 167 27 65 56 120 65 122 22 7 538 2 545 -6z"/>
<path d="M8606 3843 c-17 -34 -286 -661 -286 -668 0 -3 36 -5 79 -5 l79 0 47
113 c26 61 58 135 71 164 55 122 174 405 174 414 0 5 -34 9 -75 9 -71 0 -75
-1 -89 -27z m141 3 c3 -3 -275 -648 -282 -655 -8 -8 -109 -8 -115 0 -3 4 58
153 135 333 111 258 144 326 160 329 17 3 96 -3 102 -7z"/>
<path d="M9140 4055 c-18 -22 -159 -359 -153 -367 2 -5 53 -8 114 -8 l109 0
25 57 c14 31 28 68 32 82 3 14 11 29 17 33 16 11 126 10 126 -1 0 -15 -52
-154 -62 -168 -9 -11 -77 -50 -353 -201 -55 -30 -109 -61 -120 -68 -20 -15
-197 -423 -188 -436 2 -5 136 -8 297 -8 l294 0 41 100 c23 55 40 104 37 109
-3 4 -80 7 -171 6 -184 -3 -181 -4 -147 64 18 36 40 50 287 183 214 116 206
108 264 255 27 71 72 182 99 248 28 66 48 123 46 127 -3 5 -135 8 -293 8 -245
0 -290 -2 -301 -15z m570 -14 c0 -9 -144 -378 -174 -447 -13 -29 -97 -82 -331
-209 -175 -95 -171 -92 -189 -137 -30 -82 -38 -78 154 -78 94 0 170 -1 170 -2
0 -2 -16 -41 -35 -88 l-34 -85 -281 -3 c-178 -1 -280 1 -280 7 0 6 34 91 75
190 41 99 75 185 75 190 0 12 33 32 302 178 l197 107 35 94 c20 52 36 98 36
103 0 5 -47 9 -105 9 -63 0 -105 -4 -105 -10 0 -5 6 -10 14 -10 8 0 17 -4 20
-9 8 -13 -45 -139 -61 -145 -20 -8 -183 5 -183 14 0 6 72 181 124 303 l16 37
280 0 c169 0 280 -4 280 -9z"/>
<path d="M9793 4053 c-3 -10 -55 -133 -116 -273 -183 -426 -334 -795 -330
-802 2 -5 138 -8 302 -8 l298 0 98 228 c206 482 356 852 349 863 -3 5 -134 9
-300 9 -272 0 -295 -1 -301 -17z m581 -1 c3 -5 -10 -47 -28 -93 -57 -141 -171
-416 -239 -574 -35 -82 -88 -205 -117 -272 l-52 -123 -284 0 c-184 0 -284 4
-284 10 0 6 18 52 39 103 21 50 71 169 109 262 39 94 98 232 131 307 34 76 79
184 102 240 65 166 24 148 344 148 150 0 276 -4 279 -8z"/>
<path d="M9934 3838 c-15 -29 -168 -380 -244 -558 -50 -118 -53 -110 34 -110
l76 0 20 39 c11 22 42 93 69 158 39 93 122 289 208 491 4 9 -14 12 -71 12 -75
0 -76 0 -92 -32z m136 2 c0 -5 -22 -60 -49 -122 -27 -62 -88 -205 -136 -318
-48 -113 -92 -208 -98 -212 -16 -10 -89 -10 -104 0 -9 6 24 92 123 322 75 173
138 321 141 328 6 14 123 17 123 2z"/>
<path d="M7185 2699 c-4 -6 -67 -153 -140 -327 -110 -261 -137 -318 -154 -320
-27 -4 -26 -2 5 59 14 28 24 55 22 59 -2 5 -53 -21 -115 -58 l-112 -66 -31
-73 c-16 -40 -30 -75 -30 -78 0 -3 89 -5 198 -5 l198 0 11 28 c6 15 60 142
120 282 61 140 125 294 144 342 34 87 46 101 68 74 9 -11 8 -22 -4 -47 -8 -19
-55 -131 -104 -249 -49 -118 -109 -263 -134 -322 l-46 -108 93 0 92 0 59 143
c82 201 70 187 168 187 l83 0 32 73 c18 39 32 75 32 80 0 4 -36 7 -80 7 -61 0
-80 3 -80 14 0 7 14 45 31 85 l32 71 134 0 133 0 135 73 c74 39 135 75 135 80
0 12 -888 9 -895 -4z m845 -6 c0 -5 -51 -35 -113 -68 l-112 -60 -139 -5 -140
-5 -32 -80 c-18 -44 -33 -86 -34 -92 0 -9 22 -13 80 -13 58 0 80 -3 79 -12 0
-7 -12 -38 -27 -68 l-27 -55 -89 -5 -89 -5 -48 -118 c-26 -65 -57 -138 -68
-163 l-21 -44 -70 0 c-39 0 -70 4 -70 8 0 5 32 85 71 178 130 311 209 507 209
520 0 17 -52 57 -60 47 -4 -4 -17 -35 -29 -68 -35 -94 -273 -659 -284 -672 -7
-10 -56 -13 -182 -13 -94 0 -174 3 -177 6 -10 9 40 125 59 140 42 31 163 91
163 81 -1 -7 -7 -23 -15 -37 -8 -14 -14 -30 -15 -36 0 -16 47 -23 64 -10 13 9
93 193 241 551 20 50 42 93 48 97 16 10 827 10 827 1z"/>
</g>
</svg>
